<svg width="27" height="28" viewBox="0 0 27 28" fill="none" xmlns="http://www.w3.org/2000/svg">
<path d="M0.00738525 7V4.2H2.89627V2.8C2.89627 2.05739 3.20064 1.3452 3.74241 0.820101C4.28418 0.294999 5.01898 0 5.78516 0H14.4518V9.8L18.0629 7.7L21.6741 9.8V0H23.1185C24.6352 0 26.0074 1.33 26.0074 2.8V25.2C26.0074 26.67 24.6352 28 23.1185 28H5.78516C4.2685 28 2.89627 26.67 2.89627 25.2V23.8H0.00738525V21H2.89627V15.4H0.00738525V12.6H2.89627V7H0.00738525ZM5.78516 12.6H2.89627V15.4H5.78516V12.6ZM5.78516 7V4.2H2.89627V7H5.78516ZM5.78516 23.8V21H2.89627V23.8H5.78516Z" fill="inherit"/>
</svg>
