<svg width="139" height="100" viewBox="0 0 139 100" fill="none" xmlns="http://www.w3.org/2000/svg">
<path d="M130.66 19.0476H73.6105C71.7024 19.0476 69.8571 18.3656 68.4076 17.1247L50.8531 2.09526C50.0817 1.42914 49.1635 0.900906 48.1518 0.541225C47.1401 0.181543 46.055 -0.00241691 44.9596 2.39751e-05H8.34C6.12809 2.39751e-05 4.00678 0.752572 2.44273 2.09212C0.878676 3.43166 0 5.24848 0 7.14288V93.2262C0.00367485 95.0217 0.838132 96.7429 2.32058 98.0125C3.80303 99.2822 5.81261 99.9968 7.9091 100H131.279C133.326 99.9984 135.289 99.3012 136.736 98.0613C138.184 96.8215 138.998 95.1403 139 93.3869V26.1905C139 24.2961 138.121 22.4793 136.557 21.1397C134.993 19.8002 132.872 19.0476 130.66 19.0476ZM5.56 7.14288C5.56 6.51141 5.85289 5.90581 6.37424 5.45929C6.89559 5.01278 7.6027 4.76193 8.34 4.76193H44.9596C45.6947 4.76301 46.3994 5.01341 46.9195 5.45835C52.3666 10.1236 49.0674 19.0476 41.8955 19.0476H13.56C9.14172 19.0476 5.56 15.4659 5.56 11.0476V7.14288ZM133.44 93.3869C133.438 93.8774 133.21 94.3473 132.805 94.6942C132.4 95.041 131.851 95.2365 131.279 95.2381H7.9091C7.28664 95.2365 6.69021 95.0241 6.25006 94.6471C5.80992 94.2701 5.56183 93.7593 5.56 93.2262V31.8095C5.56 27.3913 9.14172 23.8095 13.56 23.8095H130.66C131.397 23.8095 132.104 24.0604 132.626 24.5069C133.147 24.9534 133.44 25.559 133.44 26.1905V93.3869Z" fill="#6F6E6E"/>
</svg>
