<svg width="34" height="30" viewBox="0 0 34 30" fill="none" xmlns="http://www.w3.org/2000/svg">
<path d="M2.42857 0H14.5714C15.2155 0 15.8332 0.316071 16.2887 0.87868C16.7441 1.44129 17 2.20435 17 3C17 3.79565 16.7441 4.55871 16.2887 5.12132C15.8332 5.68393 15.2155 6 14.5714 6H2.42857C1.78447 6 1.16676 5.68393 0.711312 5.12132C0.255867 4.55871 0 3.79565 0 3C0 2.20435 0.255867 1.44129 0.711312 0.87868C1.16676 0.316071 1.78447 0 2.42857 0ZM19.4286 24H31.5714C32.2155 24 32.8332 24.3161 33.2887 24.8787C33.7441 25.4413 34 26.2044 34 27C34 27.7956 33.7441 28.5587 33.2887 29.1213C32.8332 29.6839 32.2155 30 31.5714 30H19.4286C18.7845 30 18.1668 29.6839 17.7113 29.1213C17.2559 28.5587 17 27.7956 17 27C17 26.2044 17.2559 25.4413 17.7113 24.8787C18.1668 24.3161 18.7845 24 19.4286 24ZM2.42857 12H31.5714C32.2155 12 32.8332 12.3161 33.2887 12.8787C33.7441 13.4413 34 14.2044 34 15C34 15.7956 33.7441 16.5587 33.2887 17.1213C32.8332 17.6839 32.2155 18 31.5714 18H2.42857C1.78447 18 1.16676 17.6839 0.711312 17.1213C0.255867 16.5587 0 15.7956 0 15C0 14.2044 0.255867 13.4413 0.711312 12.8787C1.16676 12.3161 1.78447 12 2.42857 12Z" fill="#545454"/>
</svg>
