<svg width="27" height="26" viewBox="0 0 27 26" fill="none" xmlns="http://www.w3.org/2000/svg">
<path fill-rule="evenodd" clip-rule="evenodd" d="M8.47345 20.2558C8.47345 20.0153 8.569 19.7846 8.73908 19.6145C8.90916 19.4444 9.13984 19.3488 9.38036 19.3488H16.6357C16.8762 19.3488 17.1069 19.4444 17.277 19.6145C17.447 19.7846 17.5426 20.0153 17.5426 20.2558C17.5426 20.4964 17.447 20.7271 17.277 20.8972C17.1069 21.0672 16.8762 21.1628 16.6357 21.1628H9.38036C9.13984 21.1628 8.90916 21.0672 8.73908 20.8972C8.569 20.7271 8.47345 20.4964 8.47345 20.2558Z" fill="inherit"/>
<path fill-rule="evenodd" clip-rule="evenodd" d="M9.0176 0H16.9984C17.2645 0 17.4688 3.82925e-08 17.6466 0.0193489C18.4355 0.103868 19.1683 0.467725 19.7125 1.04521C20.2566 1.6227 20.5764 2.37575 20.614 3.16837C21.3236 3.38232 21.9467 3.81647 22.3932 4.40801C22.8397 4.99955 23.0864 5.71781 23.0978 6.45888C23.8245 6.67656 24.4521 7.02121 24.9648 7.57507C25.7532 8.42763 25.9975 9.47609 26.0071 10.7023C26.0156 11.8814 25.8064 13.3713 25.5452 15.2203L25.0132 18.986C24.81 20.4324 24.6443 21.6078 24.3868 22.5281C24.1171 23.4919 23.7193 24.284 22.9841 24.8935C22.2537 25.4981 21.3879 25.7581 20.3649 25.8815C19.3746 26 18.1291 26 16.5801 26H9.43599C7.88577 26 6.64027 26 5.65113 25.8815C4.62692 25.7581 3.76112 25.4981 3.03075 24.8935C2.29555 24.284 1.89771 23.4907 1.62806 22.5281C1.37049 21.6078 1.20483 20.4324 1.00047 18.9848L0.469626 15.2203C0.209644 13.37 -0.0019695 11.8814 0.00770426 10.7023C0.017378 9.47609 0.261641 8.42763 1.05005 7.57507C1.56276 7.02121 2.18914 6.67777 2.91588 6.45888C2.92752 5.71787 3.17457 4.99976 3.62129 4.40844C4.068 3.81713 4.69123 3.38325 5.40082 3.16958C5.43816 2.37674 5.7578 1.6234 6.30201 1.04567C6.84622 0.467933 7.5791 0.103903 8.36825 0.0193489C8.546 3.82925e-08 8.75036 0 9.01518 0H9.0176ZM4.77082 6.14084C5.89056 6.04651 7.26181 6.04651 8.91482 6.04651H17.0988C18.7506 6.04651 20.1219 6.04651 21.2428 6.14084C21.1591 5.7705 20.9518 5.43967 20.6552 5.20275C20.3585 4.96583 19.99 4.83692 19.6104 4.83721H6.40448C5.59551 4.83721 4.9389 5.40558 4.77324 6.14084H4.77082ZM17.4519 1.82363C18.117 1.89377 18.643 2.38958 18.7724 3.02326H7.24247C7.30662 2.70884 7.46916 2.42301 7.70655 2.20712C7.94395 1.99124 8.24388 1.8565 8.56293 1.82242C8.63065 1.81516 8.72739 1.81395 9.06718 1.81395H16.9489C17.2875 1.81395 17.3842 1.81516 17.4531 1.82242L17.4519 1.82363ZM2.38261 8.80614C2.74901 8.4107 3.2992 8.14828 4.36936 8.00558C5.45887 7.86047 6.91839 7.85926 8.98374 7.85926H17.0323C19.0977 7.85926 20.5572 7.86167 21.6467 8.00558C22.7169 8.14828 23.267 8.4107 23.6334 8.80614C23.9914 9.19312 24.1861 9.71916 24.1933 10.7156C24.2006 11.7435 24.0119 13.098 23.7386 15.0401L23.2271 18.668C23.0119 20.1929 22.862 21.2474 22.6407 22.0383C22.4266 22.8002 22.1763 23.2053 21.8269 23.4943C21.4726 23.7894 20.9961 23.978 20.1485 24.0796C19.279 24.1836 18.1424 24.1848 16.5208 24.1848H9.49524C7.87247 24.1848 6.73701 24.1836 5.86758 24.0796C5.02113 23.9768 4.54349 23.7894 4.18919 23.4955C3.83972 23.2053 3.58941 22.799 3.37538 22.0383C3.15409 21.2474 3.00415 20.1929 2.78891 18.668L2.27741 15.0401C2.00413 13.0992 1.81549 11.7435 1.82274 10.7156C1.83 9.71916 2.02468 9.19191 2.38261 8.80614Z" fill="inherit"/>
</svg>
