<svg width="27" height="30" viewBox="0 0 27 30" fill="none" xmlns="http://www.w3.org/2000/svg">
<path d="M0.00738525 3.52983C0.00738525 2.59366 0.398876 1.69583 1.09574 1.03386C1.79259 0.371891 2.73774 0 3.72325 0H18.5867C19.5722 0 20.5173 0.371891 21.2142 1.03386C21.9111 1.69583 22.3025 2.59366 22.3025 3.52983V20.9725L20.4446 22.755V3.52983C20.4446 3.06174 20.2489 2.61283 19.9004 2.28184C19.552 1.95086 19.0794 1.76491 18.5867 1.76491H3.72325C3.23049 1.76491 2.75792 1.95086 2.40949 2.28184C2.06106 2.61283 1.86532 3.06174 1.86532 3.52983V24.7088C1.86532 25.1769 2.06106 25.6258 2.40949 25.9568C2.75792 26.2878 3.23049 26.4737 3.72325 26.4737H11.3129C11.4448 26.8267 11.6566 27.1603 11.952 27.4444L12.7714 28.2386H3.72325C2.73774 28.2386 1.79259 27.8667 1.09574 27.2048C0.398876 26.5428 0.00738525 25.645 0.00738525 24.7088V3.52983ZM7.43911 6.1772C7.43911 6.64528 7.24336 7.09419 6.89493 7.42518C6.5465 7.75617 6.07393 7.94211 5.58118 7.94211C5.08842 7.94211 4.61585 7.75617 4.26742 7.42518C3.91899 7.09419 3.72325 6.64528 3.72325 6.1772C3.72325 5.70911 3.91899 5.2602 4.26742 4.92922C4.61585 4.59823 5.08842 4.41228 5.58118 4.41228C6.07393 4.41228 6.5465 4.59823 6.89493 4.92922C7.24336 5.2602 7.43911 5.70911 7.43911 6.1772ZM10.226 5.29474C9.97962 5.29474 9.74334 5.38771 9.56912 5.55321C9.39491 5.7187 9.29704 5.94316 9.29704 6.1772C9.29704 6.41124 9.39491 6.6357 9.56912 6.80119C9.74334 6.96668 9.97962 7.05965 10.226 7.05965H17.6577C17.9041 7.05965 18.1404 6.96668 18.3146 6.80119C18.4888 6.6357 18.5867 6.41124 18.5867 6.1772C18.5867 5.94316 18.4888 5.7187 18.3146 5.55321C18.1404 5.38771 17.9041 5.29474 17.6577 5.29474H10.226ZM10.226 12.3544C9.97962 12.3544 9.74334 12.4474 9.56912 12.6129C9.39491 12.7784 9.29704 13.0028 9.29704 13.2369C9.29704 13.4709 9.39491 13.6954 9.56912 13.8608C9.74334 14.0263 9.97962 14.1193 10.226 14.1193H17.6577C17.9041 14.1193 18.1404 14.0263 18.3146 13.8608C18.4888 13.6954 18.5867 13.4709 18.5867 13.2369C18.5867 13.0028 18.4888 12.7784 18.3146 12.6129C18.1404 12.4474 17.9041 12.3544 17.6577 12.3544H10.226ZM9.29704 20.2965C9.29704 20.0625 9.39491 19.838 9.56912 19.6725C9.74334 19.507 9.97962 19.4141 10.226 19.4141H17.6577C17.9041 19.4141 18.1404 19.507 18.3146 19.6725C18.4888 19.838 18.5867 20.0625 18.5867 20.2965C18.5867 20.5305 18.4888 20.755 18.3146 20.9205C18.1404 21.086 17.9041 21.179 17.6577 21.179H10.226C9.97962 21.179 9.74334 21.086 9.56912 20.9205C9.39491 20.755 9.29704 20.5305 9.29704 20.2965ZM5.58118 15.0018C6.07393 15.0018 6.5465 14.8158 6.89493 14.4848C7.24336 14.1538 7.43911 13.7049 7.43911 13.2369C7.43911 12.7688 7.24336 12.3199 6.89493 11.9889C6.5465 11.6579 6.07393 11.4719 5.58118 11.4719C5.08842 11.4719 4.61585 11.6579 4.26742 11.9889C3.91899 12.3199 3.72325 12.7688 3.72325 13.2369C3.72325 13.7049 3.91899 14.1538 4.26742 14.4848C4.61585 14.8158 5.08842 15.0018 5.58118 15.0018ZM5.58118 22.0614C6.07393 22.0614 6.5465 21.8755 6.89493 21.5445C7.24336 21.2135 7.43911 20.7646 7.43911 20.2965C7.43911 19.8284 7.24336 19.3795 6.89493 19.0485C6.5465 18.7175 6.07393 18.5316 5.58118 18.5316C5.08842 18.5316 4.61585 18.7175 4.26742 19.0485C3.91899 19.3795 3.72325 19.8284 3.72325 20.2965C3.72325 20.7646 3.91899 21.2135 4.26742 21.5445C4.61585 21.8755 5.08842 22.0614 5.58118 22.0614ZM25.749 22.6827C25.9176 22.5156 26.0104 22.2922 26.0073 22.0608C26.0042 21.8294 25.9055 21.6083 25.7325 21.4453C25.5595 21.2824 25.326 21.1905 25.0823 21.1895C24.8386 21.1886 24.6043 21.2786 24.4299 21.4402L17.6614 27.9351L14.6051 24.9735C14.5202 24.8889 14.4184 24.8211 14.3057 24.7741C14.1929 24.7271 14.0715 24.7019 13.9484 24.6999C13.8253 24.6979 13.703 24.7192 13.5887 24.7625C13.4743 24.8058 13.3701 24.8702 13.2822 24.9521C13.1943 25.034 13.1244 25.1316 13.0766 25.2394C13.0288 25.3472 13.004 25.4629 13.0036 25.5798C13.0033 25.6968 13.0274 25.8126 13.0746 25.9206C13.1218 26.0286 13.1911 26.1266 13.2786 26.209L16.8625 29.6823C16.966 29.7826 17.0895 29.8623 17.2257 29.9169C17.3619 29.9714 17.5082 29.9997 17.656 30C17.8038 30.0003 17.9503 29.9727 18.0868 29.9188C18.2232 29.8649 18.3471 29.7857 18.4511 29.6858L25.749 22.6827Z" fill="inherit"/>
</svg>
